# xmcd
#
# Track frame offsets:
#	150
#	12789
#	29020
#	45838
#	61227
#	74863
#	90494
#	102605
#	114541
#	129608
#	146671
#	164010
#	175721
#
# Disc length: 2576 seconds
#
# Revision: 0
# Processed by: cddbd v1.4PL0 Copyright (c) Steve Scherf et al.
# Submitted via: EasyCDDAExtractor 4.6.9.1
#
DISCID=b80a0e0d
DTITLE=Rio Negro e Solimões - Ensaio Acústico InfPR
DYEAR=2002
DGENRE=Country
TTITLE0=Rodopiou
TTITLE1=Tô por aí
TTITLE2=Estrela guia
TTITLE3=Meus pedaços
TTITLE4=Ainda ontem chorei de saudade
TTITLE5=Medo da chuva
TTITLE6=Sapatiou, sapatiou
TTITLE7=Carro velho
TTITLE8=Tô indo embora
TTITLE9=Chumbo  trocado
TTITLE10=Como te esquecer
TTITLE11=Quarto triste
TTITLE12=Porta do mundo
EXTD=
EXTT0=
EXTT1=
EXTT2=
EXTT3=
EXTT4=
EXTT5=
EXTT6=
EXTT7=
EXTT8=
EXTT9=
EXTT10=
EXTT11=
EXTT12=
PLAYORDER=
